<svg viewBox="0 0 30 30" version="1.1" xmlns="http://www.w3.org/2000/svg" xmlns:xlink="http://www.w3.org/1999/xlink">
    <g stroke="none" stroke-width="1" fill="none" fill-rule="evenodd">
        <g transform="translate(-755.000000, -15.000000)" fill="black" fill-rule="nonzero">
            <g>
                <path d="M768.138179,30.0276818 L763.8,25.6895028 L765.689503,23.8 L770.011119,28.1447263 L774.332735,23.8 L776.222238,25.6895028 L771.884059,30.0276818 L771.888398,30.0320442 L771.884064,30.0363784 L776.222238,34.3414365 L774.332735,36.2309392 L770.011119,31.9093232 L765.689503,36.2309392 L763.8,34.3414365 L768.138174,30.0363784 L768.13384,30.0320442 L768.138179,30.0276818 Z M769.983425,15 C778.270718,15 785,21.6961326 785,29.9834254 C785,38.2707182 778.270718,45 769.983425,45 C761.696133,45 755,38.2707182 755,29.9834254 C755,21.6961326 761.696133,15 769.983425,15 Z M769.983425,42.3480663 C776.779006,42.3480663 782.348066,36.8121547 782.348066,29.9834254 C782.348066,23.1878453 776.812155,17.6187845 769.983425,17.6187845 C763.187845,17.6187845 757.618785,23.1546961 757.618785,29.9834254 C757.651934,36.7790055 763.187845,42.3480663 769.983425,42.3480663 Z"></path>
            </g>
        </g>
    </g>
</svg>
